<svg xmlns="http://www.w3.org/2000/svg" xmlns:xlink="http://www.w3.org/1999/xlink" viewBox="0 0 48 48"><symbol id="e" viewBox="0 -48 48 48" fill="#FFFFFF"><path fill="none" d="M0 0v-48h48V0z"></path></symbol><symbol id="f" viewBox="-0.0002 -48 48.0002 48.0002" fill="#FFFFFF"><defs fill="#FFFFFF"><path id="a" d="M48-48H0V0h48z" fill="#FFFFFF"></path></defs><clipPath id="b" fill="#FFFFFF"><use xlink:href="#a" overflow="visible" fill="#FFFFFF"></use></clipPath><g clip-path="url(#b)" fill="#FFFFFF"><g fill="none" stroke="#FFFFFF" stroke-width=".25" stroke-miterlimit="10"><path d="M2-48V0M4-48V0M6-48V0M8-48V0M10-48V0M12-48V0M14-48V0M16-48V0M18-48V0M20-48V0M22-48V0M24-48V0M26-48V0M28-48V0M30-48V0M32-48V0M34-48V0M36-48V0M38-48V0M40-48V0M42-48V0M44-48V0M46-48V0" fill="#FFFFFF"></path></g><g fill="none" stroke="#FFFFFF" stroke-width=".25" stroke-miterlimit="10"><path d="M0-2h48M0-4h48M0-6h48M0-8h48M0-10h48M0-12h48M0-14h48M0-16h48M0-18h48M0-20h48M0-22h48M0-24h48M0-26h48M0-28h48M0-30h48M0-32h48M0-34h48M0-36h48M0-38h48M0-40h48M0-42h48M0-44h48M0-46h48" fill="#FFFFFF"></path></g><path d="M47.75-.25v-47.5H.25v47.5h47.5M48 0H0v-48h48V0z" fill="#FFFFFF"></path></g></symbol><symbol id="g" viewBox="-0.0002 -48.0005 48.0002 48.0002" fill="#FFFFFF"><g opacity=".4" fill="#FFFFFF"><defs fill="#FFFFFF"><path id="c" opacity=".4" d="M0-48V0h48v-48z" fill="#FFFFFF"></path></defs><clipPath id="d" fill="#FFFFFF"><use xlink:href="#c" overflow="visible" fill="#FFFFFF"></use></clipPath><path clip-path="url(#d)" fill="none" stroke="#FFFFFF" stroke-width=".25" stroke-miterlimit="10" d="M24 0v-48M48-24H0M48-16H0M48-32H0M32-48V0M16-48V0M47.75-.25L.25-47.75M.25-.25l47.5-47.5M24-14c-5.522 0-10-4.477-10-10s4.478-10 10-10c5.523 0 10 4.478 10 10 0 5.523-4.477 10-10 10z"></path><path d="M24-4C12.946-4 4-12.948 4-24c0-11.053 8.946-20 20-20 11.053 0 20 8.947 20 20 0 11.052-8.948 20-20 20z" clip-path="url(#d)" fill="none" stroke="#FFFFFF" stroke-width=".25" stroke-miterlimit="10"></path><path d="M40.5-42h-33c-.825 0-1.5.675-1.5 1.5v33C6-6.675 6.675-6 7.5-6h33c.825 0 1.5-.675 1.5-1.5v-33c0-.825-.675-1.5-1.5-1.5z" clip-path="url(#d)" fill="none" stroke="#FFFFFF" stroke-width=".25" stroke-miterlimit="10"></path><path d="M38.5-44h-29c-.825 0-1.5.675-1.5 1.5v37C8-4.675 8.675-4 9.5-4h29c.825 0 1.5-.675 1.5-1.5v-37c0-.825-.675-1.5-1.5-1.5z" clip-path="url(#d)" fill="none" stroke="#FFFFFF" stroke-width=".25" stroke-miterlimit="10"></path><g clip-path="url(#d)" fill="#FFFFFF"><path d="M47.75-.25v-47.5H.25v47.5h47.5M48 0H0v-48h48V0z" fill="#FFFFFF"></path></g><path d="M42.5-40h-37c-.825 0-1.5.675-1.5 1.5v29C4-8.675 4.675-8 5.5-8h37c.825 0 1.5-.675 1.5-1.5v-29c0-.825-.675-1.5-1.5-1.5z" clip-path="url(#d)" fill="none" stroke="#FFFFFF" stroke-width=".25" stroke-miterlimit="10"></path></g></symbol><path d="M39 9.864c-.318-.312-.66-.596-1.018-.864-1.67-1.25-3.736-2-5.982-2-2.24 0-4.295.753-5.96 2-.77.576-1.463 1.248-2.04 2.018-.576-.77-1.27-1.442-2.04-2.018-1.664-1.247-3.72-2-5.96-2-2.246 0-4.312.75-5.98 2-.36.268-.702.552-1.02.864C7.15 11.68 6 14.204 6 17v.003C6.004 32 22 41 24 41s18-9 18-24c0-2.796-1.15-5.32-3-7.136zM24 37.91c-2.23-.868-9.106-5.242-12.723-12.096C9.907 23.214 9 20.26 9 17.004V17c0-3.86 3.14-7 7-7 2.55 0 4.776 1.376 6 3.42.148.248.29.503.407.77.063.144.115.293.17.442h.012c.203.585.755 1.008 1.41 1.008s1.206-.423 1.41-1.008h.015c.053-.15.105-.298.168-.442.118-.267.26-.522.408-.77 1.224-2.044 3.45-3.42 6-3.42 3.86 0 7 3.14 7 7 0 3.26-.905 6.214-2.277 8.814C33.106 32.668 26.23 37.042 24 37.91z" fill="#FFFFFF"></path></svg>