<svg id="Layer_1" data-name="Layer 1" xmlns="http://www.w3.org/2000/svg" width="83.6" height="90" viewBox="0 0 83.6 90">
  <title>idea-light</title>
  <g>
    <path d="M52.4,15.6V7.4a2.4,2.4,0,0,0-4.9,0v8.1h4.9Z" transform="translate(-8.2 -5)" style="fill: #fff"/>
    <path d="M32.3,21a31.3,31.3,0,0,1,4.2-2.4l-4.1-7a2.4,2.4,0,1,0-4.2,2.4Z" transform="translate(-8.2 -5)" style="fill: #fff"/>
    <path d="M14.7,29.2l7,4.1a31.2,31.2,0,0,1,2.4-4.2l-7-4.1a2.4,2.4,0,1,0-2.4,4.2Z" transform="translate(-8.2 -5)" style="fill: #fff"/>
    <path d="M84.1,68.9a2.4,2.4,0,0,0,1.2-4.6l-7-4.1a31.2,31.2,0,0,1-2.4,4.2l7,4.1A2.4,2.4,0,0,0,84.1,68.9Z" transform="translate(-8.2 -5)" style="fill: #fff"/>
    <path d="M10.7,49.2h8.1c-.1-.8-.1-1.6-.1-2.4s0-1.6.1-2.4H10.7a2.4,2.4,0,1,0,0,4.9Z" transform="translate(-8.2 -5)" style="fill: #fff"/>
    <path d="M81.3,46.8c0,.8,0,1.6-.1,2.4h8.1a2.4,2.4,0,0,0,0-4.9H81.2C81.3,45.1,81.3,46,81.3,46.8Z" transform="translate(-8.2 -5)" style="fill: #fff"/>
    <path d="M21.8,60.3l-7,4.1a2.4,2.4,0,1,0,2.4,4.2l7-4.1A31.1,31.1,0,0,1,21.8,60.3Z" transform="translate(-8.2 -5)" style="fill: #fff"/>
    <path d="M85.3,29.2A2.4,2.4,0,0,0,82.8,25l-7,4.1a31.3,31.3,0,0,1,2.4,4.2Z" transform="translate(-8.2 -5)" style="fill: #fff"/>
    <path d="M71.8,13.9a2.4,2.4,0,1,0-4.2-2.4l-4.1,7A31.2,31.2,0,0,1,67.7,21Z" transform="translate(-8.2 -5)" style="fill: #fff"/>
    <path d="M37.5,74.5a3.9,3.9,0,0,0,.3,1,4.1,4.1,0,0,0,.9,1.2,1.6,1.6,0,0,0,2.6-1.2V73.5a51.4,51.4,0,0,0-7.8-17.7,17.8,17.8,0,0,1-3-9.9,18.4,18.4,0,0,1,6.6-14A20,20,0,0,1,50,27.2a21.3,21.3,0,0,1,3.6.3A18.9,18.9,0,0,1,69.3,42.8a17.9,17.9,0,0,1-3.1,13.6,43.3,43.3,0,0,0-7.4,15.6V75a1.6,1.6,0,0,0,2.8,1h0a3.9,3.9,0,0,0,.7-1.6,38.3,38.3,0,0,1,7.1-15.7,21.8,21.8,0,0,0,3.8-16.6h0A22.8,22.8,0,0,0,54.3,23.7a24.1,24.1,0,0,0-19.7,5.2,22.3,22.3,0,0,0-8,17,21.7,21.7,0,0,0,3.7,12A47.4,47.4,0,0,1,37.5,74.5Z" transform="translate(-8.2 -5)" style="fill: #fff"/>
    <path d="M59.1,78.2H40.7a2.2,2.2,0,0,0,0,4.4H59.1a2.2,2.2,0,0,0,0-4.4Z" transform="translate(-8.2 -5)" style="fill: #fff"/>
    <path d="M61.5,87.2A2.2,2.2,0,0,0,59.3,85H40.9a2.2,2.2,0,0,0,0,4.4H59.3A2.2,2.2,0,0,0,61.5,87.2Z" transform="translate(-8.2 -5)" style="fill: #fff"/>
    <path d="M56.1,93.1a1.9,1.9,0,0,0-1.9-1.9H45.3a1.9,1.9,0,0,0,0,3.8h8.9A1.9,1.9,0,0,0,56.1,93.1Z" transform="translate(-8.2 -5)" style="fill: #fff"/>
  </g>
</svg>
